HIERARCHY
ROOT Hips
{
	OFFSET 0.00000 0.00000 0.00000
	CHANNELS 6 Xposition Yposition Zposition Zrotation Yrotation Xrotation 
	JOINT LHipJoint
	{
		OFFSET 0 0 0
		CHANNELS 3 Zrotation Yrotation Xrotation
		JOINT LeftUpLeg
		{
			OFFSET 1.58161 -1.81893 0.78828
			CHANNELS 3 Zrotation Yrotation Xrotation
			JOINT LeftLeg
			{
				OFFSET 2.53374 -6.96141 0.00000
				CHANNELS 3 Zrotation Yrotation Xrotation
				JOINT LeftFoot
				{
					OFFSET 2.63509 -7.23986 0.00000
					CHANNELS 3 Zrotation Yrotation Xrotation
					JOINT LeftToeBase
					{
						OFFSET 0.14115 -0.38781 2.05350
						CHANNELS 3 Zrotation Yrotation Xrotation
						End Site
						{
							OFFSET 0.00000 -0.00000 1.05543
						}
					}
				}
			}
		}
	}
	JOINT RHipJoint
	{
		OFFSET 0 0 0
		CHANNELS 3 Zrotation Yrotation Xrotation
		JOINT RightUpLeg
		{
			OFFSET -1.11138 -1.81893 0.78828
			CHANNELS 3 Zrotation Yrotation Xrotation
			JOINT RightLeg
			{
				OFFSET -2.58392 -7.09926 0.00000
				CHANNELS 3 Zrotation Yrotation Xrotation
				JOINT RightFoot
				{
					OFFSET -2.66423 -7.31992 0.00000
					CHANNELS 3 Zrotation Yrotation Xrotation
					JOINT RightToeBase
					{
						OFFSET -0.18831 -0.51739 2.12114
						CHANNELS 3 Zrotation Yrotation Xrotation
						End Site
						{
							OFFSET -0.00000 -0.00000 1.09845
						}
					}
				}
			}
		}
	}
	JOINT LowerBack
	{
		OFFSET 0 0 0
		CHANNELS 3 Zrotation Yrotation Xrotation
		JOINT Spine
		{
			OFFSET -0.01511 1.97958 -0.08829
			CHANNELS 3 Zrotation Yrotation Xrotation
			JOINT Spine1
			{
				OFFSET 0.08344 1.97334 -0.04330
				CHANNELS 3 Zrotation Yrotation Xrotation
				JOINT Neck
				{
					OFFSET 0 0 0
					CHANNELS 3 Zrotation Yrotation Xrotation
					JOINT Neck1
					{
						OFFSET 0.00559 1.76246 0.31246
						CHANNELS 3 Zrotation Yrotation Xrotation
						JOINT Head
						{
							OFFSET -0.07011 1.80354 -0.30524
							CHANNELS 3 Zrotation Yrotation Xrotation
							End Site
							{
								OFFSET -0.02385 1.83547 -0.13906
							}
						}
					}
				}
				JOINT LeftShoulder
				{
					OFFSET 0 0 0
					CHANNELS 3 Zrotation Yrotation Xrotation
					JOINT LeftArm
					{
						OFFSET 3.20667 1.30156 -0.60240
						CHANNELS 3 Zrotation Yrotation Xrotation
						JOINT LeftForeArm
						{
							OFFSET 4.95663 -0.00000 0.00000
							CHANNELS 3 Zrotation Yrotation Xrotation
							JOINT LeftHand
							{
								OFFSET 3.38177 -0.00000 0.00000
								CHANNELS 3 Zrotation Yrotation Xrotation
								JOINT LeftFingerBase
								{
									OFFSET 0 0 0
									CHANNELS 3 Zrotation Yrotation Xrotation
									JOINT LeftHandIndex1
									{
										OFFSET 0.66291 -0.00000 0.00000
										CHANNELS 3 Zrotation Yrotation Xrotation
										End Site
										{
											OFFSET 0.53445 -0.00000 0.00000
										}
									}
								}
								JOINT LThumb
								{
									OFFSET 0 0 0
									CHANNELS 3 Zrotation Yrotation Xrotation
									End Site
									{
										OFFSET 0.54261 -0.00000 0.54261
									}
								}
							}
						}
					}
				}
				JOINT RightShoulder
				{
					OFFSET 0 0 0
					CHANNELS 3 Zrotation Yrotation Xrotation
					JOINT RightArm
					{
						OFFSET -3.06877 1.34672 -0.60964
						CHANNELS 3 Zrotation Yrotation Xrotation
						JOINT RightForeArm
						{
							OFFSET -5.08365 -0.00000 0.00000
							CHANNELS 3 Zrotation Yrotation Xrotation
							JOINT RightHand
							{
								OFFSET -3.35984 -0.00000 0.00000
								CHANNELS 3 Zrotation Yrotation Xrotation
								JOINT RightFingerBase
								{
									OFFSET 0 0 0
									CHANNELS 3 Zrotation Yrotation Xrotation
									JOINT RightHandIndex1
									{
										OFFSET -0.82076 -0.00000 0.00000
										CHANNELS 3 Zrotation Yrotation Xrotation
										End Site
										{
											OFFSET -0.66172 -0.00000 0.00000
										}
									}
								}
								JOINT RThumb
								{
									OFFSET 0 0 0
									CHANNELS 3 Zrotation Yrotation Xrotation
									End Site
									{
										OFFSET -0.67182 -0.00000 0.67182
									}
								}
							}
						}
					}
				}
			}
		}
	}
}
MOTION
Frames: 7
Frame Time: .0083333
0.3939 17.8906 -5.419 0 0 0 0 0 0 -21 0 0 0 0 0 0 0 0 0 0 0 0 0 0 21 0 0 0 0 0 0 0 0 0 0 0 0 0 0 0 0 0 0 0 0 0 0 -16 0 0 21 0 0 11 0 0 0 -8 0 0 0 0 0 0 0 0 0 0 0 0 0 0 0 0 0 0 0 0 8 0 0 0 0 0 0 0 0 0 0 0 0 0 0 0 0 0
0.3939 17.8906 -5.4190 -4.8096 -4.9979 8.8528 0.0000 0.0000 0.0000 -13.1126 -3.8392 -13.6406 2.3799 9.6161 27.7424 0.8631 3.1868 -18.9799 0.5610 -4.7976 -13.3321 0.0000 0.0000 0.0000 19.2212 6.6950 -14.4307 -2.4429 -9.7333 28.1173 -0.8208 -0.4250 -17.2810 -0.0685 1.6889 -4.6468 -2.1867 0.5576 -8.8492 3.4834 0.8255 -2.1286 4.9502 0.3958 2.6679 1.7051 -0.5957 -18.8626 -4.4861 -0.0607 27.2387 -1.9921 -0.4527 12.0981 0.0000 -0.0000 0.0000 -89.4521 -0.3411 32.0364 12.7664 -20.9440 -2.3691 -0.0000 0.0000 -4.0530 8.4265 38.4042 5.2578 -7.1250 0.0000 -0.0000 -34.3128 65.5571 -17.9742 0.0000 -0.0000 0.0000 86.7625 -0.7467 25.1365 -13.4027 21.8745 -2.6014 0.0000 -0.0000 -7.1432 -20.7912 12.1014 -4.5511 7.1250 -0.0000 -0.0000 4.4659 -17.0875 2.9656
0.3964 17.8924 -5.4173 -4.6992 -5.1174 8.8251 0.0000 0.0000 0.0000 -13.2819 -3.7794 -13.5393 2.3604 9.5795 27.6254 0.8594 3.1775 -18.9384 0.5519 -4.7589 -13.2222 0.0000 0.0000 0.0000 19.0878 7.1223 -14.2015 -2.4335 -9.7160 28.0619 -0.8000 -0.8579 -17.2304 -0.0945 1.9825 -5.4573 -2.3235 0.5260 -8.8322 3.5116 0.7949 -2.1337 5.0544 0.3801 2.6538 1.6851 -0.5450 -18.8094 -4.5791 0.0468 27.2275 -2.0062 -0.4188 12.0875 0.0000 -0.0000 0.0000 -89.5362 -0.1800 31.9770 12.6744 -20.8083 -2.3363 -0.0000 0.0000 -3.4225 8.6307 37.3319 5.2591 -7.1250 0.0000 -0.0000 -32.6785 64.7454 -16.4271 0.0000 -0.0000 0.0000 86.6494 -0.8044 25.3588 -13.4155 21.8929 -2.6062 0.0000 -0.0000 -7.1291 -20.7933 12.1180 -4.5577 7.1250 -0.0000 -0.0000 4.4649 -17.0697 2.9667
0.3971 17.8950 -5.4153 -4.6789 -5.1563 8.8203 0.0000 0.0000 0.0000 -13.3211 -3.7592 -13.4772 2.3460 9.5524 27.5390 0.8562 3.1979 -18.9169 0.5608 -4.7965 -13.3290 0.0000 0.0000 0.0000 19.0654 7.6708 -13.9165 -2.4162 -9.6839 27.9591 -0.7951 -1.2407 -17.3382 -0.0693 1.6986 -4.6733 -2.3408 0.5316 -8.8552 3.5051 0.8039 -2.1156 5.0592 0.3836 2.6842 1.7161 -0.5321 -18.8275 -4.6054 0.0629 27.2201 -2.0190 -0.4120 12.0888 0.0000 -0.0000 0.0000 -89.5219 -0.1465 32.0119 12.5215 -20.5820 -2.2823 -0.0000 0.0000 -2.7355 8.8903 36.2962 5.2902 -7.1250 0.0000 -0.0000 -31.1301 63.9593 -15.0099 0.0000 -0.0000 0.0000 86.6804 -0.8115 25.2859 -13.4383 21.9260 -2.6147 0.0000 -0.0000 -7.0017 -20.8368 12.0732 -4.5515 7.1250 -0.0000 -0.0000 4.4332 -17.1134 2.9413
0.3968 17.9002 -5.4151 -4.6689 -5.1741 8.8483 0.0000 0.0000 0.0000 -13.3320 -3.7776 -13.4754 2.3374 9.5361 27.4872 0.8543 3.2179 -18.9092 0.5694 -4.8328 -13.4324 0.0000 0.0000 0.0000 19.0802 8.7934 -13.4537 -2.4020 -9.6575 27.8745 -0.7874 -2.1461 -17.6702 -0.0414 1.3140 -3.6132 -2.3581 0.5338 -8.8965 3.5065 0.8085 -2.1069 5.0722 0.3849 2.7154 1.6987 -0.5349 -18.8496 -4.5937 0.0611 27.2287 -2.0123 -0.4133 12.0967 0.0000 0.0000 0.0000 -89.5372 -0.1498 31.9542 12.3028 -20.2573 -2.2060 -0.0000 0.0000 -1.7962 9.2805 35.1149 5.3697 -7.1250 0.0000 -0.0000 -29.3716 63.0651 -13.4743 0.0000 0.0000 0.0000 86.6959 -0.7870 25.2305 -13.4299 21.9138 -2.6115 0.0000 -0.0000 -6.8791 -20.8938 12.0491 -4.5561 7.1250 -0.0000 -0.0000 4.3928 -17.1337 2.9123
0.3957 17.9011 -5.4167 -4.7072 -5.1597 8.8532 0.0000 0.0000 0.0000 -13.2715 -3.8253 -13.4706 2.3357 9.5329 27.4768 0.8541 3.1917 -18.8929 0.5625 -4.8039 -13.3502 0.0000 0.0000 0.0000 19.1462 8.7924 -13.4188 -2.3905 -9.6360 27.8057 -0.7835 -2.2569 -17.6837 -0.0515 1.4644 -4.0277 -2.3331 0.5333 -8.8871 3.5221 0.8051 -2.1095 5.0737 0.3836 2.7080 1.4745 -0.5276 -19.1417 -4.2670 0.0570 27.6698 -1.8643 -0.3991 12.3315 -0.0000 0.0000 0.0000 -89.5532 -0.1474 31.8560 12.0318 -19.8523 -2.1131 -0.0000 0.0000 -0.6632 9.6033 34.0395 5.4103 -7.1250 0.0000 -0.0000 -27.8965 62.2226 -12.1877 -0.0000 0.0000 0.0000 86.6904 -0.7651 25.2473 -13.4000 21.8705 -2.6004 0.0000 -0.0000 -6.8750 -20.9214 12.0951 -4.5798 7.1250 -0.0000 -0.0000 4.3750 -17.0825 2.9054
0.3955 17.9006 -5.4167 -4.7978 -5.1321 8.8383 0.0000 0.0000 0.0000 -13.1624 -3.8161 -13.4526 2.3360 9.5334 27.4786 0.8554 3.1490 -18.8823 0.5571 -4.7810 -13.2849 0.0000 0.0000 0.0000 19.2689 8.7405 -13.3778 -2.3836 -9.6232 27.7648 -0.7717 -2.3606 -17.6103 -0.0711 1.7199 -4.7322 -2.2299 0.5422 -8.8588 3.5376 0.8067 -2.1049 5.0307 0.3850 2.6982 0.8610 -0.4905 -19.9907 -3.2849 0.0384 28.8736 -1.4181 -0.3498 12.9959 0.0000 -0.0000 0.0000 -89.5321 -0.1632 31.8884 11.6217 -19.2348 -1.9759 -0.0000 -0.0000 0.8472 10.1920 32.4775 5.5142 -7.1250 0.0000 -0.0000 -25.7734 60.9973 -10.4395 0.0000 -0.0000 0.0000 86.7049 -0.7871 25.2557 -13.3972 21.8664 -2.5993 0.0000 -0.0000 -6.9033 -20.9370 12.1460 -4.6025 7.1250 -0.0000 -0.0000 4.3657 -17.0270 2.9045
